<?xml version="1.0" encoding="iso-8859-1"?>
<!-- Generator: Adobe Illustrator 16.0.0, SVG Export Plug-In . SVG Version: 6.00 Build 0)  -->
<!DOCTYPE svg PUBLIC "-//W3C//DTD SVG 1.1//EN" "http://www.w3.org/Graphics/SVG/1.1/DTD/svg11.dtd">
<svg version="1.1" id="Capa_1" xmlns="http://www.w3.org/2000/svg" xmlns:xlink="http://www.w3.org/1999/xlink" x="0px" y="0px"
	 width="31.998px" height="31.998px" viewBox="0 0 31.998 31.998" style="enable-background:new 0 0 31.998 31.998;"
	 xml:space="preserve">
<g>
	<g>
		<path d="M23.608,28.365c0.318-0.234,0.525-0.611,0.525-1.038c0-0.562-0.36-1.035-0.861-1.212c0.5-0.178,0.861-0.649,0.861-1.211
			c0-0.565-0.365-1.04-0.871-1.215c0.506-0.174,0.871-0.648,0.871-1.213c0-0.055-0.004-0.106-0.011-0.158
			c2.063-2.03,3.345-4.854,3.345-7.979c-3.135,0-7.271,0-11.452,0c-0.011,0-0.022,0-0.033,0c-4.181,0-8.318,0-11.453,0
			c0,3.124,1.28,5.946,3.344,7.977c-0.005,0.049-0.009,0.099-0.009,0.148c0,0.564,0.366,1.04,0.872,1.215
			c-0.506,0.174-0.872,0.648-0.872,1.213c0,0.562,0.36,1.035,0.861,1.213c-0.501,0.177-0.861,0.649-0.861,1.211
			c0,0.426,0.207,0.802,0.525,1.037c-1.629,0.408-2.837,1.879-2.837,3.633c5.605,0,3.688,0,7.501,0c0-1.625-1.037-3.006-2.483-3.525
			c0.415-0.215,0.698-0.646,0.698-1.146c0-0.562-0.36-1.033-0.862-1.211c0.501-0.177,0.862-0.649,0.862-1.211
			c0-0.105-0.017-0.207-0.041-0.305c1.375,0.604,2.894,0.941,4.493,0.941c0.092,0,0.182-0.004,0.273-0.008
			c0.094,0.002,0.188,0.008,0.282,0.008c1.6,0,3.12-0.338,4.496-0.942c-0.026,0.101-0.043,0.207-0.043,0.315
			c0,0.562,0.361,1.035,0.861,1.211c-0.5,0.177-0.861,0.65-0.861,1.212c0,0.499,0.283,0.931,0.699,1.146
			c-1.446,0.521-2.483,1.9-2.483,3.527c3.813,0,1.896,0,7.501,0C26.447,30.244,25.238,28.773,23.608,28.365z"/>
		<path d="M10.104,5.454c0.052,0.34,0.302,1.758,0.974,3.021c-1.182,1.229-1.911,2.899-1.911,4.74c1.979,0,4.414,0,6.816,0
			c0.011,0,0.022,0,0.033,0c2.401,0,4.836,0,6.816,0c0-1.839-0.727-3.507-1.907-4.737c0.67-1.261,0.918-2.675,0.972-3.015
			C23.134,5.19,24.06,4.088,24.06,2.77c0-1.525-1.235-2.76-2.76-2.76c-1.523,0-2.76,1.235-2.76,2.76c0,1.301,0.902,2.39,2.114,2.681
			c-0.075,0.415-0.276,1.337-0.685,2.2c-1.114-0.799-2.479-1.271-3.953-1.277l0,0c-0.002,0-0.005,0-0.007,0
			c-0.003,0-0.006,0-0.009,0c-0.003,0-0.006,0-0.009,0c-0.002,0-0.005,0-0.007,0l0,0c-1.474,0.006-2.836,0.478-3.95,1.274
			c-0.411-0.865-0.612-1.791-0.689-2.207C12.559,5.15,13.46,4.062,13.46,2.76C13.46,1.236,12.225,0,10.7,0S7.941,1.236,7.941,2.76
			C7.941,4.08,8.867,5.181,10.104,5.454z M19.396,2.771c0-1.051,0.853-1.904,1.904-1.904c1.051,0,1.903,0.853,1.903,1.904
			c0,1.052-0.853,1.904-1.903,1.904C20.248,4.675,19.396,3.822,19.396,2.771z M12.84,11.122h3.144h0.033h3.144v0.941h-3.144h-0.033
			H12.84V11.122z M10.7,0.856c1.052,0,1.904,0.853,1.904,1.904c0,1.052-0.853,1.905-1.904,1.905c-1.051,0-1.904-0.853-1.904-1.905
			C8.797,1.709,9.649,0.856,10.7,0.856z"/>
		<circle cx="10.7" cy="2.76" r="0.862"/>
		<circle cx="21.3" cy="2.771" r="0.862"/>
	</g>
</g>
<g>
</g>
<g>
</g>
<g>
</g>
<g>
</g>
<g>
</g>
<g>
</g>
<g>
</g>
<g>
</g>
<g>
</g>
<g>
</g>
<g>
</g>
<g>
</g>
<g>
</g>
<g>
</g>
<g>
</g>
</svg>
