<?xml version="1.0" encoding="iso-8859-1"?>
<!-- Generator: Adobe Illustrator 16.0.0, SVG Export Plug-In . SVG Version: 6.00 Build 0)  -->
<!DOCTYPE svg PUBLIC "-//W3C//DTD SVG 1.1//EN" "http://www.w3.org/Graphics/SVG/1.1/DTD/svg11.dtd">
<svg version="1.1" id="Capa_1" xmlns="http://www.w3.org/2000/svg" xmlns:xlink="http://www.w3.org/1999/xlink" x="0px" y="0px"
	 width="32px" height="32px" viewBox="0 0 32 32" style="enable-background:new 0 0 32 32;" xml:space="preserve">
<g>
	<circle cx="15.63" cy="3.573" r="0.49"/>
	<circle cx="20.37" cy="3.573" r="0.49"/>
	<g>
		<path d="M17.629,18.928c0.138,0.438,0.604,0.682,1.043,0.543c0.438-0.139,0.68-0.605,0.541-1.044
			c-0.139-0.438-0.604-0.68-1.043-0.542C17.733,18.023,17.491,18.49,17.629,18.928z M18.342,18.373
			c0.166-0.053,0.344,0.04,0.396,0.205c0.053,0.167-0.04,0.344-0.206,0.396c-0.167,0.053-0.343-0.039-0.396-0.207
			C18.084,18.604,18.176,18.425,18.342,18.373z"/>
		<path d="M27.372,4.232c-0.283,0-0.529,0.156-0.664,0.385h-1.651c-0.188-0.475-0.649-0.813-1.19-0.813
			c-0.542,0-1.004,0.338-1.191,0.813h-1.246c0-0.007,0-0.015,0-0.021c0-2.538-2.42-4.596-5.407-4.596
			C16.014,0,16.007,0.001,16,0.001C15.992,0.001,15.985,0,15.978,0c-2.986,0-5.408,2.058-5.408,4.596
			c0,0.007,0.001,0.014,0.001,0.021H9.325c-0.188-0.475-0.65-0.813-1.192-0.813S7.13,4.142,6.943,4.617H5.291
			C5.158,4.388,4.912,4.232,4.628,4.232c-0.425,0-0.77,0.345-0.77,0.769c0,0.425,0.345,0.77,0.77,0.77
			c0.284,0,0.53-0.156,0.663-0.385H6.89C7.025,5.95,7.529,6.37,8.133,6.37s1.109-0.42,1.245-0.983h1.273
			c0.329,1.605,1.636,2.926,3.381,3.498v1.162h-1.068c-0.779,0-1.476,0.35-1.947,0.898c-0.244,0-2.914,0-2.959,0
			c-0.572,0-1.036,0.463-1.036,1.036v8.732H6.883c-0.514,0-0.93,0.417-0.93,0.93c0,0.006,0.001,0.012,0.001,0.017
			c-0.014,0.057-0.023,0.114-0.023,0.176v1.133c0,0.414,0.335,0.749,0.749,0.749c0.414,0,0.748-0.335,0.748-0.749v-0.395h1.219
			v0.395c0,0.414,0.335,0.749,0.748,0.749c0.414,0,0.749-0.335,0.749-0.749v-1.133c0-0.033-0.006-0.063-0.01-0.096
			c0.003-0.032,0.01-0.063,0.01-0.097c0-0.514-0.417-0.93-0.93-0.93H9.095v-7.46h1.304v6.584c0,1.015,0.59,1.888,1.443,2.304v7.309
			c-0.964,0.441-1.635,1.416-1.635,2.551c3.136,0,3.364,0,5.59,0c0-1.135-0.672-2.109-1.636-2.552v-7.046h1.838h1.839v7.046
			c-0.965,0.442-1.636,1.417-1.636,2.552c2.226,0,2.454,0,5.589,0c0-1.135-0.67-2.109-1.636-2.552v-7.308
			c0.854-0.418,1.443-1.291,1.443-2.305v-6.584h1.304v7.46h-0.117c-0.515,0-0.931,0.417-0.931,0.931c0,0.032,0.007,0.063,0.01,0.096
			c-0.004,0.031-0.01,0.062-0.01,0.096v1.133c0,0.414,0.335,0.749,0.749,0.749s0.749-0.335,0.749-0.749v-0.395h1.218v0.395
			c0,0.414,0.335,0.749,0.748,0.749c0.414,0,0.749-0.335,0.749-0.749v-1.133c0-0.061-0.009-0.119-0.022-0.176
			c0-0.006,0.002-0.012,0.002-0.016c0-0.515-0.418-0.931-0.931-0.931h-0.139V11.98c0-0.572-0.464-1.036-1.037-1.036
			c-0.045,0-2.716,0-2.959,0c-0.472-0.549-1.167-0.898-1.947-0.898h-1.067V8.884c1.744-0.572,3.053-1.892,3.381-3.498h1.273
			c0.135,0.563,0.639,0.983,1.244,0.983c0.604,0,1.108-0.42,1.243-0.983h1.599c0.135,0.229,0.379,0.385,0.664,0.385
			c0.424,0,0.771-0.345,0.771-0.77C28.141,4.577,27.795,4.232,27.372,4.232z M12.387,4.04c0-0.625,0.508-1.133,1.133-1.133
			c0.626,0,1.133,0.508,1.133,1.133c0,0.626-0.507,1.133-1.133,1.133C12.895,5.173,12.387,4.666,12.387,4.04z M18.178,16.967
			l0.06,0.19c0.218-0.026,0.438-0.005,0.647,0.062l0.098-0.187c0.01-0.019,0.027-0.032,0.046-0.038
			c0.021-0.008,0.042-0.005,0.06,0.005l0.334,0.173c0.039,0.02,0.054,0.067,0.033,0.105l-0.1,0.19
			c0.172,0.134,0.312,0.304,0.414,0.495l0.211-0.066c0.042-0.014,0.086,0.01,0.1,0.051l0.112,0.357
			c0.013,0.041-0.009,0.086-0.051,0.1l-0.211,0.066c0.026,0.213,0.01,0.43-0.054,0.637l0.196,0.102
			c0.039,0.02,0.054,0.068,0.033,0.107l-0.173,0.332c-0.01,0.019-0.026,0.031-0.047,0.037c-0.02,0.008-0.041,0.006-0.059-0.004
			l-0.191-0.1c-0.131,0.177-0.303,0.323-0.497,0.428l0.065,0.208c0.014,0.042-0.01,0.087-0.052,0.099l-0.356,0.113
			c-0.041,0.014-0.086-0.01-0.1-0.051l-0.064-0.202c-0.219,0.031-0.444,0.013-0.657-0.052l-0.093,0.18
			c-0.021,0.037-0.067,0.053-0.107,0.033l-0.332-0.173c-0.037-0.021-0.053-0.069-0.034-0.106l0.091-0.175
			c-0.18-0.135-0.328-0.309-0.431-0.508l-0.181,0.058c-0.042,0.012-0.086-0.011-0.099-0.053l-0.113-0.355
			c-0.013-0.043,0.01-0.086,0.052-0.1l0.18-0.057c-0.029-0.227-0.008-0.454,0.062-0.669l-0.17-0.089
			c-0.018-0.01-0.032-0.026-0.039-0.047c-0.007-0.02-0.004-0.041,0.005-0.06l0.173-0.333c0.021-0.038,0.068-0.053,0.105-0.033
			l0.176,0.092c0.137-0.176,0.311-0.317,0.507-0.418l-0.058-0.184c-0.015-0.042,0.008-0.086,0.051-0.099l0.357-0.112
			C18.122,16.902,18.165,16.925,18.178,16.967z M18.066,14.393l-0.022,0.655c-0.002,0.077-0.066,0.137-0.144,0.134l-0.388-0.013
			c-0.079,0.368-0.235,0.716-0.459,1.021l0.264,0.283c0.051,0.055,0.049,0.143-0.006,0.194l-0.479,0.447
			c-0.026,0.024-0.063,0.038-0.099,0.036c-0.037,0-0.072-0.018-0.097-0.043l-0.256-0.274c-0.322,0.214-0.688,0.356-1.07,0.415
			l-0.013,0.382c-0.002,0.076-0.066,0.136-0.142,0.134L14.5,17.741c-0.077-0.003-0.136-0.067-0.133-0.144l0.012-0.371
			c-0.38-0.076-0.741-0.237-1.056-0.471l-0.258,0.241c-0.056,0.052-0.143,0.05-0.195-0.007l-0.447-0.479
			c-0.05-0.053-0.047-0.145,0.006-0.194l0.252-0.236c-0.218-0.329-0.36-0.703-0.415-1.092l-0.331-0.012
			c-0.076-0.002-0.136-0.066-0.134-0.142l0.023-0.655c0.002-0.077,0.066-0.136,0.143-0.133l0.331,0.011
			c0.082-0.388,0.251-0.753,0.493-1.068l-0.229-0.245c-0.024-0.026-0.038-0.063-0.037-0.099c0.001-0.037,0.017-0.072,0.044-0.097
			l0.479-0.447c0.056-0.052,0.143-0.049,0.195,0.007l0.235,0.252c0.328-0.208,0.696-0.342,1.079-0.393l0.011-0.335
			c0.002-0.076,0.066-0.137,0.143-0.134l0.654,0.022c0.076,0.003,0.136,0.067,0.134,0.143l-0.013,0.348
			c0.375,0.085,0.728,0.249,1.033,0.482l0.269-0.251c0.027-0.025,0.063-0.038,0.099-0.037c0.037,0.001,0.07,0.017,0.096,0.043
			l0.447,0.479c0.052,0.056,0.049,0.144-0.008,0.195l-0.274,0.257c0.205,0.32,0.339,0.682,0.394,1.057l0.387,0.013
			C18.008,14.254,18.068,14.317,18.066,14.393z M17.667,7.299H16h-1.667c-0.248,0-0.449-0.201-0.449-0.449
			c0-0.249,0.201-0.449,0.449-0.449H16h1.667c0.248,0,0.449,0.2,0.449,0.449C18.116,7.098,17.915,7.299,17.667,7.299z M18.479,5.173
			c-0.626,0-1.133-0.507-1.133-1.133c0-0.625,0.507-1.133,1.133-1.133c0.625,0,1.133,0.508,1.133,1.133
			C19.612,4.666,19.105,5.173,18.479,5.173z"/>
		<path d="M14.983,13.178c-0.803-0.027-1.476,0.601-1.503,1.404c-0.027,0.803,0.601,1.477,1.404,1.504
			c0.803,0.027,1.476-0.602,1.503-1.404C16.415,13.879,15.787,13.205,14.983,13.178z M14.915,15.184
			c-0.305-0.011-0.543-0.267-0.533-0.571c0.011-0.305,0.267-0.543,0.571-0.533c0.305,0.011,0.543,0.266,0.533,0.571
			C15.475,14.956,15.219,15.194,14.915,15.184z"/>
	</g>
</g>
<g>
</g>
<g>
</g>
<g>
</g>
<g>
</g>
<g>
</g>
<g>
</g>
<g>
</g>
<g>
</g>
<g>
</g>
<g>
</g>
<g>
</g>
<g>
</g>
<g>
</g>
<g>
</g>
<g>
</g>
</svg>
