<?xml version="1.0" encoding="iso-8859-1"?>
<!-- Generator: Adobe Illustrator 16.0.0, SVG Export Plug-In . SVG Version: 6.00 Build 0)  -->
<!DOCTYPE svg PUBLIC "-//W3C//DTD SVG 1.1//EN" "http://www.w3.org/Graphics/SVG/1.1/DTD/svg11.dtd">
<svg version="1.1" id="Capa_1" xmlns="http://www.w3.org/2000/svg" xmlns:xlink="http://www.w3.org/1999/xlink" x="0px" y="0px"
	 width="32px" height="32px" viewBox="0 0 32 32" style="enable-background:new 0 0 32 32;" xml:space="preserve">
<g>
	<g>
		<path d="M26.455,20.146c0.024-1.252-0.069-5.132-2.047-7.337c-0.888-0.991-2.022-1.527-3.371-1.595v-0.001h-3.136v-0.888
			c2.888-0.469,5.009-2.033,5.009-3.891c0-1.381-1.174-2.6-2.963-3.328l0.703-1.771c0.077,0.029,0.16,0.048,0.247,0.048
			c0.381,0,0.69-0.309,0.69-0.689c0-0.381-0.31-0.689-0.69-0.689c-0.38,0-0.688,0.309-0.688,0.689c0,0.234,0.117,0.44,0.295,0.564
			l-1.723,1.467c-0.824-0.21-1.734-0.327-2.69-0.327c-0.004,0-0.007,0-0.011,0s-0.007,0-0.01,0c-0.949,0-1.852,0.115-2.672,0.322
			l-1.721-1.466c0.177-0.125,0.295-0.331,0.295-0.564c0-0.381-0.309-0.69-0.69-0.69c-0.38,0-0.689,0.309-0.689,0.69
			c0,0.38,0.309,0.689,0.689,0.689c0.088,0,0.17-0.019,0.247-0.048l0.701,1.768c-1.799,0.727-2.98,1.949-2.98,3.335
			c0,1.862,2.131,3.428,5.028,3.895v0.884h-3.349v0.004c-1.333,0.074-2.457,0.609-3.337,1.592c-1.977,2.206-2.071,6.085-2.046,7.337
			c-1.081,0.336-1.861,1.259-1.861,2.345c0,0.021,0.003,0.041,0.004,0.062h1.467c-0.001-0.021-0.005-0.041-0.005-0.062
			c0-0.562,0.58-1.017,1.292-1.017c0.712,0,1.293,0.455,1.293,1.017c0,0.021-0.004,0.041-0.006,0.062h1.467
			c0-0.021,0.003-0.041,0.003-0.062c0-0.988-0.646-1.841-1.577-2.24c-0.051-1.303,0.123-4.509,1.516-6.06
			c0.481-0.535,1.069-0.825,1.789-0.892v9.118h0.629v2.075c-0.374,0.292-0.609,0.711-0.609,1.176c0,0.466,0.235,0.884,0.609,1.177
			v2.929C10.766,30.2,10.226,31.037,10.226,32c2.566,0,1.276,0,5.048,0c0-0.963-0.54-1.8-1.333-2.225v-2.803
			c0.48-0.291,0.794-0.766,0.794-1.304s-0.314-1.012-0.794-1.303v-1.948h4.016v1.948c-0.48,0.291-0.795,0.766-0.795,1.303
			s0.313,1.013,0.795,1.304v2.803C17.162,30.2,16.623,31.037,16.623,32c3.771,0,2.482,0,5.046,0c0-0.963-0.539-1.8-1.332-2.225
			v-2.93c0.375-0.291,0.611-0.71,0.611-1.177c0-0.465-0.236-0.884-0.611-1.176v-2.075h0.699v-9.121
			c0.736,0.059,1.334,0.351,1.823,0.895c1.394,1.55,1.567,4.757,1.517,6.06c-0.932,0.398-1.578,1.251-1.578,2.24
			c0,0.02,0.004,0.041,0.005,0.062h1.467c-0.001-0.021-0.006-0.043-0.006-0.062c0-0.562,0.58-1.018,1.293-1.018
			c0.712,0,1.292,0.457,1.292,1.018c0,0.02-0.004,0.041-0.005,0.062h1.467c0-0.021,0.004-0.043,0.004-0.062
			C28.314,21.405,27.535,20.482,26.455,20.146z M19.072,4.489c0.647,0,1.172,0.524,1.172,1.171s-0.524,1.171-1.172,1.171
			c-0.646,0-1.171-0.524-1.171-1.171S18.425,4.489,19.072,4.489z M11.935,5.656c0-0.647,0.524-1.171,1.171-1.171
			c0.646,0,1.171,0.524,1.171,1.171c0,0.646-0.525,1.171-1.171,1.171C12.459,6.828,11.935,6.303,11.935,5.656z M13.871,7.925h2.218
			v0.003h2.219v0.998h-2.219V8.922h-2.218V7.925z M14.41,14.457h5.664v0.657H14.41V14.457z M14.41,15.799h5.664v0.658H14.41V15.799z
			 M20.074,13.732H14.41v-0.657h5.664V13.732z M12.812,19.562c0.472,0,0.855,0.383,0.855,0.854c0,0.17-0.051,0.327-0.136,0.46
			l-1.179-1.179C12.485,19.613,12.643,19.562,12.812,19.562z M11.986,18.287c0-0.169,0.051-0.326,0.137-0.459l1.178,1.178
			c-0.133,0.085-0.29,0.137-0.459,0.137C12.37,19.143,11.986,18.76,11.986,18.287z M13.56,18.747l-1.179-1.179
			c0.133-0.086,0.29-0.137,0.46-0.137c0.472,0,0.855,0.383,0.855,0.854C13.697,18.457,13.645,18.614,13.56,18.747z M12.352,15.423
			c0.133-0.084,0.29-0.136,0.459-0.136c0.472,0,0.855,0.382,0.855,0.855c0,0.168-0.051,0.326-0.136,0.459L12.352,15.423z
			 M12.812,13.075c0.472,0,0.855,0.382,0.855,0.854c0,0.169-0.051,0.327-0.136,0.46l-1.179-1.179
			C12.485,13.126,12.643,13.075,12.812,13.075z M12.093,13.47l1.179,1.179c-0.133,0.085-0.29,0.135-0.46,0.135
			c-0.472,0-0.854-0.382-0.854-0.854C11.957,13.76,12.008,13.603,12.093,13.47z M12.093,15.683l1.179,1.178
			c-0.133,0.086-0.29,0.137-0.46,0.137c-0.472,0-0.854-0.382-0.854-0.854C11.957,15.973,12.008,15.815,12.093,15.683z
			 M12.093,19.957l1.179,1.179c-0.133,0.085-0.29,0.136-0.46,0.136c-0.472,0-0.854-0.381-0.854-0.854
			C11.957,20.247,12.008,20.09,12.093,19.957z M14.41,17.219h5.664v4.053H14.41V17.219z"/>
		<circle cx="13.106" cy="5.656" r="0.689"/>
		<circle cx="19.072" cy="5.66" r="0.689"/>
	</g>
</g>
<g>
</g>
<g>
</g>
<g>
</g>
<g>
</g>
<g>
</g>
<g>
</g>
<g>
</g>
<g>
</g>
<g>
</g>
<g>
</g>
<g>
</g>
<g>
</g>
<g>
</g>
<g>
</g>
<g>
</g>
</svg>
