<?xml version="1.0" encoding="iso-8859-1"?>
<!-- Generator: Adobe Illustrator 16.0.0, SVG Export Plug-In . SVG Version: 6.00 Build 0)  -->
<!DOCTYPE svg PUBLIC "-//W3C//DTD SVG 1.1//EN" "http://www.w3.org/Graphics/SVG/1.1/DTD/svg11.dtd">
<svg version="1.1" id="Capa_1" xmlns="http://www.w3.org/2000/svg" xmlns:xlink="http://www.w3.org/1999/xlink" x="0px" y="0px"
	 width="32px" height="32px" viewBox="0 0 32 32" style="enable-background:new 0 0 32 32;" xml:space="preserve">
<g>
	<g>
		<path d="M16.128,10.568h5.61v-2.07c0-1.65-1.108-3.039-2.621-3.466c0.095-0.15,0.15-0.328,0.15-0.519
			c0.002-0.535-0.433-0.968-0.968-0.968c-0.534,0-0.968,0.433-0.968,0.968c0,0.136,0.029,0.266,0.079,0.384l-2.584,0.001
			c0.05-0.117,0.079-0.246,0.079-0.382c0-0.535-0.433-0.968-0.968-0.968S12.97,3.982,12.97,4.517c0,0.191,0.056,0.369,0.151,0.519
			C11.609,5.462,10.5,6.852,10.5,8.501v2.071h5.628V10.568z"/>
		<path d="M29.971,21.919c0.027-1.365-0.074-5.597-2.23-8.002c-0.893-0.996-2.012-1.569-3.333-1.711
			c-0.689-0.79-1.776-1.277-2.892-1.277l-10.79,0.003c-1.104,0-2.179,0.477-2.869,1.251c-1.435,0.091-2.645,0.673-3.595,1.734
			c-2.157,2.405-2.259,6.637-2.232,8.002C0.85,22.287,0,23.293,0,24.477c0,0.023,0.003,0.045,0.004,0.067h1.601
			c-0.002-0.022-0.006-0.044-0.006-0.067c0-0.611,0.633-1.109,1.41-1.109c0.777,0,1.41,0.498,1.41,1.109
			c0,0.023-0.004,0.045-0.006,0.067h1.601c0-0.022,0.004-0.044,0.004-0.067c0-1.078-0.705-2.008-1.719-2.442
			c-0.057-1.421,0.134-4.917,1.652-6.609c0.343-0.382,0.736-0.649,1.187-0.81c0.286,1.999,0.762,2.959,1.479,4.522
			c0.356,0.776,0.692,1.516,1.113,2.109H9.72v1.769v0.097v1.834c-0.089-0.006-0.178-0.01-0.268-0.01
			c-1.943,0-3.519,1.574-3.519,3.519c5.258,0,3.46,0,7.037,0c0-0.908-0.345-1.736-0.91-2.36v-2.98h1.081v-0.528l5.957-0.002v0.526
			h1.08v2.98c-0.564,0.624-0.91,1.452-0.91,2.36c3.578,0,1.779,0,7.037,0c0-1.943-1.574-3.52-3.519-3.52
			c-0.091,0-0.179,0.005-0.269,0.011v-1.834v-0.097v-1.769H22.51c0.422-0.594,0.758-1.333,1.113-2.109
			c0.706-1.539,1.178-2.495,1.466-4.429c0.356,0.164,0.677,0.402,0.961,0.719c1.519,1.69,1.709,5.188,1.652,6.608
			c-1.015,0.437-1.72,1.367-1.72,2.443c0,0.023,0.004,0.045,0.004,0.067h1.602c-0.002-0.022-0.006-0.044-0.006-0.067
			c0-0.611,0.633-1.109,1.41-1.109s1.408,0.498,1.408,1.109c0,0.023-0.004,0.045-0.006,0.067h1.602c0-0.022,0.004-0.044,0.004-0.067
			C32,23.293,31.15,22.287,29.971,21.919z M16.128,16.645v0.004h-5.747v-0.735h5.729v-0.003h5.748v0.734H16.128z M20.807,17.817
			v0.734h-4.679v0.003h-4.695v-0.735h4.678v-0.002H20.807z M16.128,20.565h-3.751V19.83h3.734v-0.004h3.75v0.735h-3.733V20.565z
			 M23.061,14.688h-6.933v0.003H9.18v-0.735h6.931v-0.003h6.949V14.688z"/>
	</g>
</g>
<g>
</g>
<g>
</g>
<g>
</g>
<g>
</g>
<g>
</g>
<g>
</g>
<g>
</g>
<g>
</g>
<g>
</g>
<g>
</g>
<g>
</g>
<g>
</g>
<g>
</g>
<g>
</g>
<g>
</g>
</svg>
